<svg width="334" height="334" xmlns="http://www.w3.org/2000/svg" xmlns:xlink="http://www.w3.org/1999/xlink" xml:space="preserve" overflow="hidden"><defs><clipPath id="clip0"><rect x="1329" y="747" width="334" height="334"/></clipPath><clipPath id="clip1"><rect x="1333" y="748" width="331" height="330"/></clipPath><clipPath id="clip2"><rect x="1333" y="748" width="331" height="330"/></clipPath><clipPath id="clip3"><rect x="1333" y="748" width="331" height="330"/></clipPath></defs><g clip-path="url(#clip0)" transform="translate(-1329 -747)"><g clip-path="url(#clip1)"><g clip-path="url(#clip2)"><g clip-path="url(#clip3)"><path d="M1642.38 833.938 1597.69 833.938 1597.69 830.5C1597.69 826.703 1594.61 823.625 1590.81 823.625 1587.02 823.625 1583.94 826.703 1583.94 830.5L1583.94 833.938 1539.25 833.938C1535.45 833.938 1532.38 837.015 1532.38 840.812 1532.38 844.61 1535.45 847.688 1539.25 847.688L1583.94 847.688 1583.94 858 1580.5 858C1578.6 858 1577.06 859.539 1577.06 861.438L1577.06 868.976 1562.04 866.57C1519.62 859.739 1476.38 859.739 1433.95 866.57L1418.94 868.976 1418.94 861.438C1418.94 859.539 1417.4 858 1415.5 858L1412.06 858 1412.06 847.688 1456.75 847.688C1460.55 847.688 1463.63 844.61 1463.63 840.812 1463.63 837.015 1460.55 833.938 1456.75 833.938L1412.06 833.938 1412.06 830.5C1412.06 826.703 1408.98 823.625 1405.19 823.625 1401.39 823.625 1398.31 826.703 1398.31 830.5L1398.31 833.938 1353.63 833.938C1349.83 833.938 1346.75 837.015 1346.75 840.812 1346.75 844.61 1349.83 847.688 1353.63 847.688L1398.31 847.688 1398.31 858 1394.88 858C1392.98 858 1391.44 859.539 1391.44 861.438L1391.44 873.4 1383.92 874.613C1377.7 875.555 1373.43 881.357 1374.37 887.572 1375.13 892.62 1379.17 896.542 1384.24 897.163L1405.07 899.913C1415.19 901.254 1425.16 903.593 1434.82 906.895L1439.06 908.349C1443.02 909.703 1446.92 911.217 1450.75 912.89L1429.25 966.677 1429.25 1002.38 1443 1002.38 1443 969.323 1463.15 918.954 1464.52 919.679C1469 922.064 1473.99 923.312 1479.07 923.312L1487.69 923.312 1487.69 940.5 1477.38 940.5C1473.58 940.5 1470.5 943.578 1470.5 947.375L1470.5 974.875C1470.5 978.672 1473.58 981.75 1477.38 981.75L1518.63 981.75C1522.42 981.75 1525.5 978.672 1525.5 974.875L1525.5 947.375C1525.5 943.578 1522.42 940.5 1518.63 940.5L1508.31 940.5 1508.31 923.312 1516.93 923.312C1522.01 923.314 1527.01 922.066 1531.49 919.679L1532.86 918.95 1553 969.323 1553 1002.38 1566.75 1002.38 1566.75 966.677 1545.24 912.897C1549.07 911.231 1552.97 909.718 1556.93 908.359L1561.17 906.905C1570.84 903.607 1580.81 901.273 1590.93 899.938L1611.76 897.188C1618 896.422 1622.44 890.744 1621.67 884.505 1621.05 879.437 1617.13 875.403 1612.08 874.638L1604.56 873.4 1604.56 861.438C1604.56 859.539 1603.02 858 1601.13 858L1597.69 858 1597.69 847.688 1642.38 847.688C1646.17 847.688 1649.25 844.61 1649.25 840.812 1649.25 837.015 1646.17 833.938 1642.38 833.938ZM1498 969.719C1493.25 969.719 1489.41 965.871 1489.41 961.125 1489.41 956.379 1493.25 952.531 1498 952.531 1502.75 952.531 1506.59 956.379 1506.59 961.125 1506.59 965.871 1502.75 969.719 1498 969.719Z" fill="#262626" fill-rule="nonzero" fill-opacity="1"/></g></g></g></g></svg>