<svg width="334" height="335" xmlns="http://www.w3.org/2000/svg" xmlns:xlink="http://www.w3.org/1999/xlink" xml:space="preserve" overflow="hidden"><defs><clipPath id="clip0"><rect x="1329" y="435" width="334" height="335"/></clipPath><clipPath id="clip1"><rect x="1333" y="435" width="331" height="331"/></clipPath><clipPath id="clip2"><rect x="1333" y="435" width="331" height="331"/></clipPath><clipPath id="clip3"><rect x="1333" y="435" width="331" height="331"/></clipPath></defs><g clip-path="url(#clip0)" transform="translate(-1329 -435)"><g clip-path="url(#clip1)"><g clip-path="url(#clip2)"><g clip-path="url(#clip3)"><path d="M1472.56 587.25C1465 587.25 1458.81 581.062 1458.81 573.5 1458.81 565.937 1465 559.75 1472.56 559.75 1480.13 559.75 1486.31 565.937 1486.31 573.5 1486.31 581.062 1480.13 587.25 1472.56 587.25ZM1615.56 578.656 1431.66 502.344 1400.03 578.656 1462.25 604.781 1462.25 618.187C1462.25 633.312 1449.88 645.687 1434.75 645.687L1383.19 645.687 1383.19 484.125 1362.56 484.125 1362.56 717.875 1383.19 717.875 1383.19 666.312 1434.75 666.312C1461.22 666.312 1482.88 644.656 1482.88 618.187L1482.88 613.031 1541.31 637.094 1615.56 578.656Z" fill="#262626" fill-rule="nonzero" fill-opacity="1"/><path d="M1608.34 602.031 1577.75 626.094 1602.84 636.406 1633.44 612.344Z" fill="#262626" fill-rule="nonzero" fill-opacity="1"/></g></g></g></g></svg>