<svg width="334" height="334" xmlns="http://www.w3.org/2000/svg" xmlns:xlink="http://www.w3.org/1999/xlink" xml:space="preserve" overflow="hidden"><defs><clipPath id="clip0"><rect x="1329" y="73" width="334" height="334"/></clipPath><clipPath id="clip1"><rect x="1333" y="73" width="331" height="331"/></clipPath><clipPath id="clip2"><rect x="1333" y="73" width="331" height="331"/></clipPath><clipPath id="clip3"><rect x="1333" y="73" width="331" height="331"/></clipPath></defs><g clip-path="url(#clip0)" transform="translate(-1329 -73)"><g clip-path="url(#clip1)"><g clip-path="url(#clip2)"><g clip-path="url(#clip3)"><path d="M1498 156.5C1492.18 156.631 1487.56 161.458 1487.69 167.283L1487.69 197.75C1487.69 203.445 1492.3 208.062 1498 208.062 1503.7 208.062 1508.31 203.445 1508.31 197.75L1508.31 167.283C1508.44 161.458 1503.82 156.631 1498 156.5Z" fill="#262626" fill-rule="nonzero" fill-opacity="1"/><path d="M1581.19 286.221C1578.88 267.815 1577.57 249.298 1577.26 230.75 1577.26 215.625 1577.95 201.373 1578.95 188.592 1582.44 146.065 1550.79 108.76 1508.26 105.269 1507.27 105.187 1506.27 105.125 1505.26 105.082 1502.81 104.986 1500.3 104.937 1497.75 104.937 1495.2 104.937 1492.7 104.986 1490.24 105.082 1447.61 106.916 1414.54 142.961 1416.37 185.592 1416.42 186.59 1416.48 187.587 1416.56 188.582 1417.56 201.363 1418.25 215.625 1418.25 230.75 1417.94 249.301 1416.62 267.822 1414.31 286.231 1409.04 330.484 1440.65 370.626 1484.9 375.891 1486.92 376.132 1488.96 376.296 1490.99 376.383 1493.2 376.459 1495.46 376.497 1497.75 376.5 1500.05 376.502 1502.3 376.463 1504.52 376.383 1549.04 374.475 1583.59 336.836 1581.68 292.313 1581.59 290.277 1581.43 288.245 1581.19 286.221ZM1522.06 197.75C1522.11 208.507 1515.14 218.039 1504.88 221.252L1504.88 273.375C1504.88 277.172 1501.8 280.25 1498 280.25 1494.2 280.25 1491.13 277.172 1491.13 273.375L1491.13 221.252C1480.86 218.037 1473.89 208.506 1473.94 197.75L1473.94 167.287C1473.89 156.528 1480.86 146.995 1491.13 143.781L1491.13 125.562C1491.13 121.765 1494.2 118.687 1498 118.687 1501.8 118.687 1504.88 121.765 1504.88 125.562L1504.88 143.781C1515.14 146.997 1522.11 156.529 1522.06 167.287Z" fill="#262626" fill-rule="nonzero" fill-opacity="1"/></g></g></g></g></svg>