<svg width="335" height="334" xmlns="http://www.w3.org/2000/svg" xmlns:xlink="http://www.w3.org/1999/xlink" xml:space="preserve" overflow="hidden"><defs><clipPath id="clip0"><rect x="1347" y="2067" width="335" height="334"/></clipPath><clipPath id="clip1"><rect x="1348" y="2071" width="331" height="331"/></clipPath><clipPath id="clip2"><rect x="1348" y="2071" width="331" height="331"/></clipPath><clipPath id="clip3"><rect x="1348" y="2071" width="331" height="331"/></clipPath></defs><g clip-path="url(#clip0)" transform="translate(-1347 -2067)"><g clip-path="url(#clip1)"><g clip-path="url(#clip2)"><g clip-path="url(#clip3)"><path d="M1383.37 2211.25 1365.5 2204.03 1362.75 2210.22 1383.37 2218.47 1383.37 2245.62 1365.5 2238.41 1362.75 2244.59 1383.37 2252.84 1383.37 2336.03 1383.37 2356.66 1404 2356.66 1404 2336.03 1431.5 2336.03 1431.5 2356.66 1452.12 2356.66 1452.12 2336.03 1452.12 2177.91 1383.37 2177.91Z" fill="#262626" fill-rule="nonzero" fill-opacity="1"/><path d="M1544.94 2246.66 1589.62 2246.66 1589.62 2260.41 1544.94 2260.41 1544.94 2246.66ZM1465.87 2281.03 1665.25 2281.03 1665.25 2232.91 1465.87 2232.91 1465.87 2281.03Z" fill="#262626" fill-rule="nonzero" fill-opacity="1"/><path d="M1544.94 2308.53 1589.62 2308.53 1589.62 2322.28 1544.94 2322.28 1544.94 2308.53ZM1465.87 2336.03 1465.87 2356.66 1486.5 2356.66 1486.5 2336.03 1644.62 2336.03 1644.62 2356.66 1665.25 2356.66 1665.25 2294.78 1465.87 2294.78 1465.87 2336.03Z" fill="#262626" fill-rule="nonzero" fill-opacity="1"/><path d="M1507.12 2171.03 1655.28 2135.97C1660.78 2134.59 1664.22 2129.09 1662.84 2123.59 1662.16 2120.84 1660.44 2118.44 1658.37 2117.06 1655.97 2115.69 1653.22 2115 1650.47 2115.69L1500.25 2150.75 1479.62 2150.75C1472.06 2150.75 1465.87 2156.94 1465.87 2164.5L1465.87 2218.81 1665.25 2218.81 1665.25 2177.56 1507.12 2177.56 1507.12 2171.03Z" fill="#262626" fill-rule="nonzero" fill-opacity="1"/></g></g></g></g></svg>