<svg width="335" height="335" xmlns="http://www.w3.org/2000/svg" xmlns:xlink="http://www.w3.org/1999/xlink" xml:space="preserve" overflow="hidden"><defs><clipPath id="clip0"><rect x="490" y="742" width="335" height="335"/></clipPath><clipPath id="clip1"><rect x="491" y="742" width="331" height="331"/></clipPath><clipPath id="clip2"><rect x="491" y="742" width="331" height="331"/></clipPath><clipPath id="clip3"><rect x="491" y="742" width="331" height="331"/></clipPath></defs><g clip-path="url(#clip0)" transform="translate(-490 -742)"><g clip-path="url(#clip1)"><g clip-path="url(#clip2)"><g clip-path="url(#clip3)"><path d="M529.833 787.687 550.458 787.687 550.458 890.812 529.833 890.812Z" fill="#262626" fill-rule="nonzero" fill-opacity="1"/><path d="M619.208 808.312C623.005 808.312 626.083 811.39 626.083 815.187L626.083 863.312C626.083 867.109 623.005 870.187 619.208 870.187L598.583 870.187C594.786 870.187 591.708 867.109 591.708 863.312L591.708 815.187C591.708 811.39 594.786 808.312 598.583 808.312L619.208 808.312M619.208 787.687 598.583 787.687C583.395 787.687 571.083 799.999 571.083 815.187L571.083 863.312C571.083 878.5 583.395 890.812 598.583 890.812L619.208 890.812C634.396 890.812 646.708 878.5 646.708 863.312L646.708 815.187C646.708 799.999 634.396 787.687 619.208 787.687Z" fill="#262626" fill-rule="nonzero" fill-opacity="1"/><path d="M667.333 787.687 687.958 787.687 687.958 890.812 667.333 890.812Z" fill="#262626" fill-rule="nonzero" fill-opacity="1"/><path d="M756.708 808.312C760.505 808.312 763.583 811.39 763.583 815.187L763.583 863.312C763.583 867.109 760.505 870.187 756.708 870.187L736.083 870.187C732.286 870.187 729.208 867.109 729.208 863.312L729.208 815.187C729.208 811.39 732.286 808.312 736.083 808.312L756.708 808.312M756.708 787.687 736.083 787.687C720.895 787.687 708.583 799.999 708.583 815.187L708.583 863.312C708.583 878.5 720.895 890.812 736.083 890.812L756.708 890.812C771.896 890.812 784.208 878.5 784.208 863.312L784.208 815.187C784.208 799.999 771.896 787.687 756.708 787.687Z" fill="#262626" fill-rule="nonzero" fill-opacity="1"/><path d="M529.833 925.187 550.458 925.187 550.458 1028.31 529.833 1028.31Z" fill="#262626" fill-rule="nonzero" fill-opacity="1"/><path d="M619.208 945.812C623.005 945.812 626.083 948.89 626.083 952.687L626.083 1000.81C626.083 1004.61 623.005 1007.69 619.208 1007.69L598.583 1007.69C594.786 1007.69 591.708 1004.61 591.708 1000.81L591.708 952.687C591.708 948.89 594.786 945.812 598.583 945.812L619.208 945.812M619.208 925.187 598.583 925.187C583.395 925.187 571.083 937.499 571.083 952.687L571.083 1000.81C571.083 1016 583.395 1028.31 598.583 1028.31L619.208 1028.31C634.396 1028.31 646.708 1016 646.708 1000.81L646.708 952.687C646.708 937.499 634.396 925.187 619.208 925.187Z" fill="#262626" fill-rule="nonzero" fill-opacity="1"/><path d="M667.333 925.187 687.958 925.187 687.958 1028.31 667.333 1028.31Z" fill="#262626" fill-rule="nonzero" fill-opacity="1"/><path d="M756.708 945.812C760.505 945.812 763.583 948.89 763.583 952.687L763.583 1000.81C763.583 1004.61 760.505 1007.69 756.708 1007.69L736.083 1007.69C732.286 1007.69 729.208 1004.61 729.208 1000.81L729.208 952.687C729.208 948.89 732.286 945.812 736.083 945.812L756.708 945.812M756.708 925.187 736.083 925.187C720.895 925.187 708.583 937.499 708.583 952.687L708.583 1000.81C708.583 1016 720.895 1028.31 736.083 1028.31L756.708 1028.31C771.896 1028.31 784.208 1016 784.208 1000.81L784.208 952.687C784.208 937.499 771.896 925.187 756.708 925.187Z" fill="#262626" fill-rule="nonzero" fill-opacity="1"/></g></g></g></g></svg>