<svg width="335" height="335" xmlns="http://www.w3.org/2000/svg" xmlns:xlink="http://www.w3.org/1999/xlink" xml:space="preserve" overflow="hidden"><defs><clipPath id="clip0"><rect x="1347" y="1672" width="335" height="335"/></clipPath><clipPath id="clip1"><rect x="1348" y="1676" width="331" height="331"/></clipPath><clipPath id="clip2"><rect x="1348" y="1676" width="331" height="331"/></clipPath><clipPath id="clip3"><rect x="1348" y="1676" width="331" height="331"/></clipPath></defs><g clip-path="url(#clip0)" transform="translate(-1347 -1672)"><g clip-path="url(#clip1)"><g clip-path="url(#clip2)"><g clip-path="url(#clip3)"><path d="M1431.5 1908.03 1596.5 1908.03 1596.5 1973.34 1431.5 1973.34Z" fill="#262626" fill-rule="nonzero" fill-opacity="1"/><path d="M1575.87 1808.34 1575.87 1842.72 1452.12 1842.72 1452.12 1725.84 1527.75 1725.84 1527.75 1773.97 1575.87 1773.97 1575.87 1808.34ZM1548.37 1727.22 1572.09 1753.34 1548.37 1753.34 1548.37 1727.22ZM1397.12 1856.47C1389.56 1856.47 1383.37 1850.28 1383.37 1842.72 1383.37 1835.16 1389.56 1828.97 1397.12 1828.97 1404.69 1828.97 1410.87 1835.16 1410.87 1842.72 1410.87 1850.28 1404.69 1856.47 1397.12 1856.47ZM1651.5 1808.34 1596.5 1808.34 1596.5 1749.22 1556.28 1705.22 1431.5 1705.22 1431.5 1808.34 1376.5 1808.34C1368.94 1808.34 1362.75 1814.53 1362.75 1822.09L1362.75 1959.59C1362.75 1967.16 1368.94 1973.34 1376.5 1973.34L1417.75 1973.34 1417.75 1894.28 1610.25 1894.28 1610.25 1973.34 1651.5 1973.34C1659.06 1973.34 1665.25 1967.16 1665.25 1959.59L1665.25 1822.09C1665.25 1814.53 1659.06 1808.34 1651.5 1808.34Z" fill="#262626" fill-rule="nonzero" fill-opacity="1"/><path d="M1465.87 1787.72 1562.12 1787.72 1562.12 1801.47 1465.87 1801.47Z" fill="#262626" fill-rule="nonzero" fill-opacity="1"/><path d="M1465.87 1760.22 1514 1760.22 1514 1773.97 1465.87 1773.97Z" fill="#262626" fill-rule="nonzero" fill-opacity="1"/><path d="M1465.87 1815.22 1562.12 1815.22 1562.12 1828.97 1465.87 1828.97Z" fill="#262626" fill-rule="nonzero" fill-opacity="1"/></g></g></g></g></svg>