<svg width="335" height="335" xmlns="http://www.w3.org/2000/svg" xmlns:xlink="http://www.w3.org/1999/xlink" xml:space="preserve" overflow="hidden"><defs><clipPath id="clip0"><rect x="1333" y="1310" width="335" height="335"/></clipPath><clipPath id="clip1"><rect x="1335" y="1314" width="331" height="331"/></clipPath><clipPath id="clip2"><rect x="1335" y="1314" width="331" height="331"/></clipPath><clipPath id="clip3"><rect x="1335" y="1314" width="331" height="331"/></clipPath></defs><g clip-path="url(#clip0)" transform="translate(-1333 -1310)"><g clip-path="url(#clip1)"><g clip-path="url(#clip2)"><g clip-path="url(#clip3)"><path d="M1561.88 1528.84 1561.53 1597.59 1438.81 1597.59 1438.13 1528.84 1561.88 1528.84ZM1418.19 1618.22 1581.81 1618.22 1582.16 1508.22 1417.5 1508.22 1418.19 1618.22Z" fill="#262626" fill-rule="nonzero" fill-opacity="1"/><path d="M1465.63 1542.59 1534.38 1542.59 1534.38 1556.34 1465.63 1556.34Z" fill="#262626" fill-rule="nonzero" fill-opacity="1"/><path d="M1465.63 1570.09 1534.38 1570.09 1534.38 1583.84 1465.63 1583.84Z" fill="#262626" fill-rule="nonzero" fill-opacity="1"/><path d="M1561.88 1441.19 1438.13 1441.19 1438.13 1362.13 1513.75 1362.13 1513.75 1410.25 1561.88 1410.25 1561.88 1441.19ZM1534.38 1363.5 1558.09 1389.63 1534.38 1389.63 1534.38 1363.5ZM1383.13 1458.38C1375.56 1458.38 1369.38 1452.19 1369.38 1444.63 1369.38 1437.06 1375.56 1430.88 1383.13 1430.88 1390.69 1430.88 1396.88 1437.06 1396.88 1444.63 1396.88 1452.19 1390.69 1458.38 1383.13 1458.38ZM1637.5 1410.25 1582.5 1410.25 1582.5 1385.5 1542.28 1341.5 1417.5 1341.5 1417.5 1410.25 1362.5 1410.25C1354.94 1410.25 1348.75 1416.44 1348.75 1424L1348.75 1561.5C1348.75 1569.06 1354.94 1575.25 1362.5 1575.25L1403.75 1575.25 1403.75 1496.19 1596.25 1496.19 1596.25 1575.25 1637.5 1575.25C1645.06 1575.25 1651.25 1569.06 1651.25 1561.5L1651.25 1424C1651.25 1416.44 1645.06 1410.25 1637.5 1410.25Z" fill="#262626" fill-rule="nonzero" fill-opacity="1"/></g></g></g></g></svg>