<svg width="335" height="335" xmlns="http://www.w3.org/2000/svg" xmlns:xlink="http://www.w3.org/1999/xlink" xml:space="preserve" overflow="hidden"><defs><clipPath id="clip0"><rect x="490" y="421" width="335" height="335"/></clipPath><clipPath id="clip1"><rect x="491" y="423" width="331" height="331"/></clipPath><clipPath id="clip2"><rect x="491" y="423" width="331" height="331"/></clipPath><clipPath id="clip3"><rect x="491" y="423" width="331" height="331"/></clipPath></defs><g clip-path="url(#clip0)" transform="translate(-490 -421)"><g clip-path="url(#clip1)"><g clip-path="url(#clip2)"><g clip-path="url(#clip3)"><path d="M646.687 654.312 667.312 654.312 667.312 681.812 646.687 681.812Z" fill="#262626" fill-rule="nonzero" fill-opacity="1"/><path d="M646.687 695.562 667.312 695.562 667.312 716.187 646.687 716.187Z" fill="#262626" fill-rule="nonzero" fill-opacity="1"/><path d="M681.062 695.562 780.75 695.562 780.75 716.187 681.062 716.187Z" fill="#262626" fill-rule="nonzero" fill-opacity="1"/><path d="M533.25 695.562 632.937 695.562 632.937 716.187 533.25 716.187Z" fill="#262626" fill-rule="nonzero" fill-opacity="1"/><path d="M754.694 599.312 559.306 599.312C552.51 599.312 547 604.822 547 611.619L547 642.006C547 648.803 552.51 654.312 559.306 654.312L754.694 654.312C761.49 654.312 767 648.803 767 642.006L767 611.619C767 604.822 761.49 599.312 754.694 599.312ZM581.375 633.687C577.578 633.687 574.5 630.609 574.5 626.812 574.5 623.015 577.578 619.937 581.375 619.937 585.172 619.937 588.25 623.015 588.25 626.812 588.25 630.609 585.172 633.687 581.375 633.687ZM615.75 633.687C611.953 633.687 608.875 630.609 608.875 626.812 608.875 623.015 611.953 619.937 615.75 619.937 619.547 619.937 622.625 623.015 622.625 626.812 622.625 630.609 619.547 633.687 615.75 633.687ZM650.125 633.687C646.328 633.687 643.25 630.609 643.25 626.812 643.25 623.015 646.328 619.937 650.125 619.937 653.922 619.937 657 623.015 657 626.812 657 630.609 653.922 633.687 650.125 633.687Z" fill="#262626" fill-rule="nonzero" fill-opacity="1"/><path d="M754.694 530.562 559.306 530.562C552.51 530.562 547 536.072 547 542.869L547 573.256C547 580.053 552.51 585.562 559.306 585.562L754.694 585.562C761.49 585.562 767 580.053 767 573.256L767 542.869C767 536.072 761.49 530.562 754.694 530.562ZM581.375 564.937C577.578 564.937 574.5 561.859 574.5 558.062 574.5 554.265 577.578 551.187 581.375 551.187 585.172 551.187 588.25 554.265 588.25 558.062 588.25 561.859 585.172 564.937 581.375 564.937ZM615.75 564.937C611.953 564.937 608.875 561.859 608.875 558.062 608.875 554.265 611.953 551.187 615.75 551.187 619.547 551.187 622.625 554.265 622.625 558.062 622.625 561.859 619.547 564.937 615.75 564.937ZM650.125 564.937C646.328 564.937 643.25 561.859 643.25 558.062 643.25 554.265 646.328 551.187 650.125 551.187 653.922 551.187 657 554.265 657 558.062 657 561.859 653.922 564.937 650.125 564.937Z" fill="#262626" fill-rule="nonzero" fill-opacity="1"/><path d="M754.694 461.812 559.306 461.812C552.51 461.812 547 467.322 547 474.119L547 504.506C547 511.303 552.51 516.812 559.306 516.812L754.694 516.812C761.49 516.812 767 511.303 767 504.506L767 474.119C767 467.322 761.49 461.812 754.694 461.812ZM581.375 496.187C577.578 496.187 574.5 493.109 574.5 489.312 574.5 485.515 577.578 482.437 581.375 482.437 585.172 482.437 588.25 485.515 588.25 489.312 588.25 493.109 585.172 496.187 581.375 496.187ZM615.75 496.187C611.953 496.187 608.875 493.109 608.875 489.312 608.875 485.515 611.953 482.437 615.75 482.437 619.547 482.437 622.625 485.515 622.625 489.312 622.625 493.109 619.547 496.187 615.75 496.187ZM650.125 496.187C646.328 496.187 643.25 493.109 643.25 489.312 643.25 485.515 646.328 482.437 650.125 482.437 653.922 482.437 657 485.515 657 489.312 657 493.109 653.922 496.187 650.125 496.187Z" fill="#262626" fill-rule="nonzero" fill-opacity="1"/></g></g></g></g></svg>