<svg width="334" height="334" xmlns="http://www.w3.org/2000/svg" xmlns:xlink="http://www.w3.org/1999/xlink" xml:space="preserve" overflow="hidden"><defs><clipPath id="clip0"><rect x="96" y="73" width="334" height="334"/></clipPath><clipPath id="clip1"><rect x="96" y="75" width="331" height="331"/></clipPath><clipPath id="clip2"><rect x="96" y="75" width="331" height="331"/></clipPath><clipPath id="clip3"><rect x="96" y="75" width="331" height="331"/></clipPath></defs><g clip-path="url(#clip0)" transform="translate(-96 -73)"><g clip-path="url(#clip1)"><g clip-path="url(#clip2)"><g clip-path="url(#clip3)"><path d="M358.25 282.25 165.75 282.25 165.75 165.375 358.25 165.375ZM378.875 158.5C378.875 150.906 372.719 144.75 365.125 144.75L158.875 144.75C151.281 144.75 145.125 150.906 145.125 158.5L145.125 302.875 378.875 302.875Z" fill="#262626" fill-rule="nonzero" fill-opacity="1"/><path d="M282.625 316.625 282.625 320.062C282.743 321.843 281.395 323.382 279.614 323.5 279.472 323.509 279.329 323.509 279.187 323.5L244.812 323.5C243.032 323.618 241.493 322.27 241.375 320.489 241.366 320.347 241.366 320.204 241.375 320.062L241.375 316.625 103.875 316.625 103.875 323.5C103.875 331.094 110.031 337.25 117.625 337.25L406.375 337.25C413.969 337.25 420.125 331.094 420.125 323.5L420.125 316.625Z" fill="#262626" fill-rule="nonzero" fill-opacity="1"/><path d="M262 175.687C235.421 175.687 213.875 197.234 213.875 223.812 213.875 250.391 235.421 271.937 262 271.937 288.579 271.937 310.125 250.391 310.125 223.812 310.125 197.234 288.579 175.687 262 175.687ZM265.437 227.25 281.216 227.25C279.419 239.1 273.892 250.07 265.437 258.566ZM265.437 220.375 265.437 189.025C273.901 197.529 279.428 208.511 281.216 220.375ZM258.562 220.375 243.3 220.375C245.009 208.715 250.35 197.89 258.562 189.437ZM258.562 227.25 258.562 258.187C250.365 249.724 245.027 238.905 243.3 227.25ZM236.391 220.375 221.678 220.375C223.204 202.369 236.494 187.564 254.231 184.109 244.432 193.888 238.156 206.644 236.391 220.375ZM236.391 227.25C238.158 241.005 244.46 253.778 254.3 263.55 236.537 260.098 223.22 245.28 221.678 227.25ZM288.125 227.25 302.322 227.25C300.817 245.051 287.805 259.754 270.319 263.412 280.113 253.676 286.379 240.95 288.125 227.25ZM288.125 220.375C286.365 206.711 280.142 194.01 270.422 184.247 287.856 187.941 300.814 202.617 302.322 220.375Z" fill="#262626" fill-rule="nonzero" fill-opacity="1"/></g></g></g></g></svg>