<svg width="334" height="335" xmlns="http://www.w3.org/2000/svg" xmlns:xlink="http://www.w3.org/1999/xlink" xml:space="preserve" overflow="hidden"><defs><clipPath id="clip0"><rect x="96" y="728" width="334" height="335"/></clipPath><clipPath id="clip1"><rect x="96" y="731" width="331" height="331"/></clipPath><clipPath id="clip2"><rect x="96" y="731" width="331" height="331"/></clipPath><clipPath id="clip3"><rect x="96" y="731" width="331" height="331"/></clipPath></defs><g clip-path="url(#clip0)" transform="translate(-96 -728)"><g clip-path="url(#clip1)"><g clip-path="url(#clip2)"><g clip-path="url(#clip3)"><path d="M289.5 931.375 124.5 931.375 124.5 821.375 289.5 821.375 289.5 931.375ZM296.375 800.75 117.625 800.75C110.062 800.75 103.875 806.937 103.875 814.5L103.875 938.25C103.875 945.812 110.062 952 117.625 952L186.375 952 186.375 972.625 155.437 972.625 155.437 993.25 258.562 993.25 258.562 972.625 227.625 972.625 227.625 952 296.375 952C303.937 952 310.125 945.812 310.125 938.25L310.125 814.5C310.125 806.937 303.937 800.75 296.375 800.75Z" fill="#262626" fill-rule="nonzero" fill-opacity="1"/><path d="M406.375 835.125 337.625 835.125 337.625 814.5 406.375 814.5 406.375 835.125ZM406.375 869.5 337.625 869.5 337.625 848.875 406.375 848.875 406.375 869.5ZM372 972.625C366.156 972.625 361.687 968.156 361.687 962.312 361.687 956.469 366.156 952 372 952 377.844 952 382.312 956.469 382.312 962.312 382.312 968.156 377.844 972.625 372 972.625ZM406.375 800.75 337.625 800.75C330.062 800.75 323.875 806.937 323.875 814.5L323.875 979.5C323.875 987.062 330.062 993.25 337.625 993.25L406.375 993.25C413.937 993.25 420.125 987.062 420.125 979.5L420.125 814.5C420.125 806.937 413.937 800.75 406.375 800.75Z" fill="#262626" fill-rule="nonzero" fill-opacity="1"/></g></g></g></g></svg>