<svg width="334" height="335" xmlns="http://www.w3.org/2000/svg" xmlns:xlink="http://www.w3.org/1999/xlink" xml:space="preserve" overflow="hidden"><defs><clipPath id="clip0"><rect x="96" y="1388" width="334" height="335"/></clipPath><clipPath id="clip1"><rect x="96" y="1389" width="331" height="331"/></clipPath><clipPath id="clip2"><rect x="96" y="1389" width="331" height="331"/></clipPath><clipPath id="clip3"><rect x="96" y="1389" width="331" height="331"/></clipPath></defs><g clip-path="url(#clip0)" transform="translate(-96 -1388)"><g clip-path="url(#clip1)"><g clip-path="url(#clip2)"><g clip-path="url(#clip3)"><path d="M376.812 1455.69C374.062 1439.53 359.625 1427.16 342.781 1427.16 341.062 1427.16 339 1427.5 337.281 1427.5 329.031 1417.19 316.312 1410.66 301.875 1410.66 280.906 1410.66 263.375 1424.75 257.875 1444 238.625 1447.78 224.187 1464.63 224.187 1484.91 224.187 1507.94 242.75 1526.5 265.437 1526.5L265.437 1526.5C265.437 1526.5 367.187 1526.5 368.562 1526.5 388.5 1526.5 403.281 1510.34 403.281 1490.41 403.281 1473.91 391.937 1460.16 376.812 1455.69ZM366.5 1505.88 264.75 1505.88C256.844 1505.19 249.969 1500.72 246.531 1493.84 243.437 1486.63 244.125 1478.38 248.937 1471.84 253.062 1466.34 259.25 1463.25 265.781 1463.25 266.812 1463.25 268.187 1463.25 269.219 1463.59L275.406 1464.63 275.406 1457.75C275.406 1445.38 283.656 1434.72 295.687 1431.97 297.75 1431.63 299.812 1431.28 301.875 1431.28 301.875 1431.28 301.875 1431.28 301.875 1431.28 301.875 1431.28 301.875 1431.28 301.875 1431.28 311.844 1431.28 320.781 1436.78 325.25 1445.72L327.312 1449.84 331.781 1448.13C333.844 1447.44 336.25 1447.09 338.656 1447.09 343.125 1447.09 347.25 1448.47 351.031 1450.88 356.531 1455 359.969 1461.53 359.969 1468.41L359.969 1473.91 366.844 1473.91C375.781 1473.91 383 1481.13 383 1490.06 382.656 1498.66 375.437 1505.88 366.5 1505.88Z" fill="#262626" fill-rule="nonzero" fill-opacity="1"/><path d="M275.062 1540.25 132.062 1540.25C125.875 1540.25 121.062 1545.06 121.062 1551.25L121.062 1649.56C121.062 1655.75 125.875 1660.56 132.062 1660.56 132.062 1660.56 132.062 1660.56 132.062 1660.56L186.375 1660.56 186.375 1674.31 162.312 1674.31 162.312 1694.94 244.812 1694.94 244.812 1674.31 220.75 1674.31 220.75 1660.56 275.062 1660.56C281.25 1660.56 286.062 1655.75 286.062 1649.56L286.062 1551.25C286.062 1545.06 281.25 1540.25 275.062 1540.25ZM265.437 1639.94 141.687 1639.94 141.687 1560.88 265.437 1560.88 265.437 1639.94Z" fill="#262626" fill-rule="nonzero" fill-opacity="1"/><path d="M336.937 1540.25C340.375 1544.72 342.094 1550.56 342.094 1556.06 342.094 1566.38 336.25 1575.66 327.312 1580.47L327.312 1566.38 302.219 1591.81 327.312 1616.56 327.312 1602.47C353.094 1595.59 368.219 1569.13 361 1543.34 360.656 1542.31 360.312 1541.28 359.969 1540.25L336.937 1540.25Z" fill="#262626" fill-rule="nonzero" fill-opacity="1"/><path d="M175.719 1526.5C172.969 1523.06 170.562 1516.19 170.562 1510.69 170.562 1500.38 176.406 1491.09 185.344 1486.28L185.344 1500.38 210.437 1474.94 185.344 1450.19 185.344 1464.28C159.562 1471.16 144.437 1497.63 151.656 1523.41 152 1524.44 152.344 1525.47 152.687 1526.5L175.719 1526.5Z" fill="#262626" fill-rule="nonzero" fill-opacity="1"/></g></g></g></g></svg>