<svg width="334" height="335" xmlns="http://www.w3.org/2000/svg" xmlns:xlink="http://www.w3.org/1999/xlink" xml:space="preserve" overflow="hidden"><defs><clipPath id="clip0"><rect x="96" y="1058" width="334" height="335"/></clipPath><clipPath id="clip1"><rect x="96" y="1060" width="331" height="331"/></clipPath><clipPath id="clip2"><rect x="96" y="1060" width="331" height="331"/></clipPath><clipPath id="clip3"><rect x="96" y="1060" width="331" height="331"/></clipPath></defs><g clip-path="url(#clip0)" transform="translate(-96 -1058)"><g clip-path="url(#clip1)"><g clip-path="url(#clip2)"><g clip-path="url(#clip3)"><path d="M358.25 1266.25 165.75 1266.25 165.75 1149.38 358.25 1149.38 358.25 1266.25ZM378.875 1142.5C378.875 1134.94 372.687 1128.75 365.125 1128.75L158.875 1128.75C151.312 1128.75 145.125 1134.94 145.125 1142.5L145.125 1286.88 378.875 1286.88 378.875 1142.5Z" fill="#262626" fill-rule="nonzero" fill-opacity="1"/><path d="M282.625 1300.63 282.625 1304.06C282.625 1306.13 281.25 1307.5 279.187 1307.5L244.812 1307.5C242.75 1307.5 241.375 1306.13 241.375 1304.06L241.375 1300.63 103.875 1300.63 103.875 1307.5C103.875 1315.06 110.062 1321.25 117.625 1321.25L406.375 1321.25C413.937 1321.25 420.125 1315.06 420.125 1307.5L420.125 1300.63 282.625 1300.63Z" fill="#262626" fill-rule="nonzero" fill-opacity="1"/></g></g></g></g></svg>