<svg width="334" height="334" xmlns="http://www.w3.org/2000/svg" xmlns:xlink="http://www.w3.org/1999/xlink" xml:space="preserve" overflow="hidden"><defs><clipPath id="clip0"><rect x="96" y="1714" width="334" height="334"/></clipPath><clipPath id="clip1"><rect x="96" y="1717" width="331" height="331"/></clipPath><clipPath id="clip2"><rect x="96" y="1717" width="331" height="331"/></clipPath><clipPath id="clip3"><rect x="96" y="1717" width="331" height="331"/></clipPath></defs><g clip-path="url(#clip0)" transform="translate(-96 -1714)"><g clip-path="url(#clip1)"><g clip-path="url(#clip2)"><g clip-path="url(#clip3)"><path d="M378.875 1937 145.125 1937 145.125 1785.75 378.875 1785.75 378.875 1937ZM385.75 1765.12 138.25 1765.12C130.687 1765.12 124.5 1771.31 124.5 1778.88L124.5 1943.88C124.5 1951.44 130.687 1957.62 138.25 1957.62L234.5 1957.62 234.5 1978.25 200.125 1978.25 200.125 1998.88 323.875 1998.88 323.875 1978.25 289.5 1978.25 289.5 1957.62 385.75 1957.62C393.312 1957.62 399.5 1951.44 399.5 1943.88L399.5 1778.88C399.5 1771.31 393.312 1765.12 385.75 1765.12Z" fill="#E7E6E6" fill-rule="nonzero" fill-opacity="1"/></g></g></g></g></svg>