<svg width="335" height="335" xmlns="http://www.w3.org/2000/svg" xmlns:xlink="http://www.w3.org/1999/xlink" xml:space="preserve" overflow="hidden"><defs><clipPath id="clip0"><rect x="490" y="105" width="335" height="335"/></clipPath><clipPath id="clip1"><rect x="491" y="105" width="331" height="331"/></clipPath><clipPath id="clip2"><rect x="491" y="105" width="331" height="331"/></clipPath><clipPath id="clip3"><rect x="491" y="105" width="331" height="331"/></clipPath></defs><g clip-path="url(#clip0)" transform="translate(-490 -105)"><g clip-path="url(#clip1)"><g clip-path="url(#clip2)"><g clip-path="url(#clip3)"><path d="M526.375 222.875 550.437 222.875 550.437 236.625 526.375 236.625Z" fill="#E7E6E6" fill-rule="nonzero" fill-opacity="1"/><path d="M526.375 195.375 550.437 195.375 550.437 209.125 526.375 209.125Z" fill="#E7E6E6" fill-rule="nonzero" fill-opacity="1"/><path d="M526.375 250.375 550.437 250.375 550.437 264.125 526.375 264.125Z" fill="#E7E6E6" fill-rule="nonzero" fill-opacity="1"/><path d="M526.375 332.875 550.437 332.875 550.437 346.625 526.375 346.625Z" fill="#E7E6E6" fill-rule="nonzero" fill-opacity="1"/><path d="M526.375 305.375 550.437 305.375 550.437 319.125 526.375 319.125Z" fill="#E7E6E6" fill-rule="nonzero" fill-opacity="1"/><path d="M526.375 277.875 550.437 277.875 550.437 291.625 526.375 291.625Z" fill="#E7E6E6" fill-rule="nonzero" fill-opacity="1"/><path d="M763.562 305.375 787.625 305.375 787.625 319.125 763.562 319.125Z" fill="#E7E6E6" fill-rule="nonzero" fill-opacity="1"/><path d="M763.562 332.875 787.625 332.875 787.625 346.625 763.562 346.625Z" fill="#E7E6E6" fill-rule="nonzero" fill-opacity="1"/><path d="M763.562 277.875 787.625 277.875 787.625 291.625 763.562 291.625Z" fill="#E7E6E6" fill-rule="nonzero" fill-opacity="1"/><path d="M763.562 195.375 787.625 195.375 787.625 209.125 763.562 209.125Z" fill="#E7E6E6" fill-rule="nonzero" fill-opacity="1"/><path d="M763.562 250.375 787.625 250.375 787.625 264.125 763.562 264.125Z" fill="#E7E6E6" fill-rule="nonzero" fill-opacity="1"/><path d="M763.562 222.875 787.625 222.875 787.625 236.625 763.562 236.625Z" fill="#E7E6E6" fill-rule="nonzero" fill-opacity="1"/><path d="M663.875 140.375 677.625 140.375 677.625 164.437 663.875 164.437Z" fill="#E7E6E6" fill-rule="nonzero" fill-opacity="1"/><path d="M718.875 140.375 732.625 140.375 732.625 164.437 718.875 164.437Z" fill="#E7E6E6" fill-rule="nonzero" fill-opacity="1"/><path d="M691.375 140.375 705.125 140.375 705.125 164.437 691.375 164.437Z" fill="#E7E6E6" fill-rule="nonzero" fill-opacity="1"/><path d="M636.375 140.375 650.125 140.375 650.125 164.437 636.375 164.437Z" fill="#E7E6E6" fill-rule="nonzero" fill-opacity="1"/><path d="M581.375 140.375 595.125 140.375 595.125 164.437 581.375 164.437Z" fill="#E7E6E6" fill-rule="nonzero" fill-opacity="1"/><path d="M608.875 140.375 622.625 140.375 622.625 164.437 608.875 164.437Z" fill="#E7E6E6" fill-rule="nonzero" fill-opacity="1"/><path d="M608.875 377.562 622.625 377.562 622.625 401.625 608.875 401.625Z" fill="#E7E6E6" fill-rule="nonzero" fill-opacity="1"/><path d="M581.375 377.562 595.125 377.562 595.125 401.625 581.375 401.625Z" fill="#E7E6E6" fill-rule="nonzero" fill-opacity="1"/><path d="M636.375 377.562 650.125 377.562 650.125 401.625 636.375 401.625Z" fill="#E7E6E6" fill-rule="nonzero" fill-opacity="1"/><path d="M663.875 377.562 677.625 377.562 677.625 401.625 663.875 401.625Z" fill="#E7E6E6" fill-rule="nonzero" fill-opacity="1"/><path d="M691.375 377.562 705.125 377.562 705.125 401.625 691.375 401.625Z" fill="#E7E6E6" fill-rule="nonzero" fill-opacity="1"/><path d="M718.875 377.562 732.625 377.562 732.625 401.625 718.875 401.625Z" fill="#E7E6E6" fill-rule="nonzero" fill-opacity="1"/><path d="M612.312 226.312 701.687 226.312 701.687 315.687 612.312 315.687Z" fill="#E7E6E6" fill-rule="nonzero" fill-opacity="1"/><path d="M736.062 178.187 577.937 178.187C570.344 178.187 564.187 184.344 564.187 191.937L564.187 350.062C564.187 357.656 570.344 363.812 577.937 363.812L736.062 363.812C743.656 363.812 749.812 357.656 749.812 350.062L749.812 191.937C749.812 184.344 743.656 178.187 736.062 178.187ZM715.437 329.437 598.562 329.437 598.562 212.562 715.437 212.562Z" fill="#E7E6E6" fill-rule="nonzero" fill-opacity="1"/></g></g></g></g></svg>