<svg width="334" height="334" xmlns="http://www.w3.org/2000/svg" xmlns:xlink="http://www.w3.org/1999/xlink" xml:space="preserve" overflow="hidden"><defs><clipPath id="clip0"><rect x="96" y="2044" width="334" height="334"/></clipPath><clipPath id="clip1"><rect x="96" y="2044" width="331" height="331"/></clipPath><clipPath id="clip2"><rect x="96" y="2044" width="331" height="331"/></clipPath><clipPath id="clip3"><rect x="96" y="2044" width="331" height="331"/></clipPath></defs><g clip-path="url(#clip0)" transform="translate(-96 -2044)"><g clip-path="url(#clip1)"><g clip-path="url(#clip2)"><g clip-path="url(#clip3)"><path d="M310.812 2232.69C325.25 2237.84 339 2243.69 350.344 2252.97 355.156 2256.75 357.906 2262.25 357.906 2268.44L364.094 2321.72C364.437 2324.12 363.406 2326.53 361.344 2327.91 355.5 2331.69 349.312 2334.78 342.781 2336.84L342.781 2347.84 352.062 2347.84C357.906 2345.44 363.75 2342.69 368.906 2339.25 375.094 2335.12 378.531 2327.56 377.5 2320L372 2268.09C371.656 2258.12 367.187 2248.84 359.281 2242.66 346.562 2232 331.437 2225.47 315.625 2219.97L298.781 2213.09C297.406 2212.41 296.719 2211.38 296.719 2210L296.719 2201.75C309.781 2191.44 317.344 2175.62 317.344 2158.78L317.344 2146.41C319.406 2147.78 321.812 2148.12 324.219 2148.47L318.375 2131.28C317.687 2128.88 317 2126.47 316.656 2124.06 313.906 2104.47 302.219 2090.72 286.062 2082.12 284.687 2081.44 282.969 2081.44 281.594 2082.47L278.5 2084.88 275.062 2080.06C274.031 2078.69 272.656 2077.31 270.937 2076.97 267.844 2076.28 264.75 2075.94 261.656 2075.94 234.5 2075.94 211.812 2097.25 207 2125.09L207 2127.5 207 2133.34C207 2140.91 205.625 2148.12 202.531 2155L196.687 2168.75C196.687 2168.75 200.812 2167.72 207.687 2165.66 209.406 2179.75 216.625 2192.47 227.625 2201.06L227.625 2209.66C227.625 2211.03 226.937 2212.41 225.562 2212.75L208.719 2219.62C192.906 2225.12 177.781 2231.66 165.062 2242.31 157.156 2248.5 152.344 2257.78 152 2267.75L146.156 2320C145.125 2327.56 148.562 2335.12 154.75 2339.25 159.906 2342.69 165.75 2345.44 171.594 2347.84L181.219 2347.84 181.219 2337.19C174.687 2334.78 168.5 2332.03 162.656 2328.25 160.594 2326.88 159.562 2324.47 159.906 2322.06L165.75 2269.12 165.75 2268.44C165.75 2262.25 168.844 2256.75 173.656 2252.97 185 2243.69 198.75 2237.84 213.187 2232.69L218.687 2230.97C228.656 2237.16 244.469 2240.94 262 2240.94 279.531 2240.94 295.344 2237.16 305.656 2230.97L310.812 2232.69ZM220.75 2161.53C244.125 2153.62 277.812 2139.88 292.937 2120.62 296.031 2125.44 299.469 2129.91 303.25 2134.38L303.25 2158.44C303.25 2181.12 284.687 2199.69 262 2199.69 240.344 2199.69 222.469 2183.19 220.75 2161.53ZM234.5 2223.41C238.625 2220.31 241.375 2215.16 241.375 2209.66L241.375 2209.31C254.437 2214.81 269.562 2214.81 282.625 2209.31L282.625 2209.66C282.625 2214.81 285.031 2219.97 289.156 2223.41 280.219 2226.16 270.937 2227.53 261.656 2227.19 252.719 2227.19 243.437 2225.81 234.5 2223.41Z" fill="#E7E6E6" fill-rule="nonzero" fill-opacity="1"/><path d="M336.25 2269.47C336.25 2264.66 332.469 2260.88 327.656 2260.88L327.656 2260.88 196.687 2260.88C191.875 2260.88 188.094 2264.66 188.094 2269.47L188.094 2355.06 161.969 2355.06 161.969 2359.53C161.969 2364.34 165.75 2368.12 170.562 2368.12L353.781 2368.12C358.594 2368.12 362.375 2364.34 362.375 2359.53L362.375 2355.06 336.25 2355.06 336.25 2269.47ZM244.125 2326.19 239.312 2331 220.062 2311.75 239.312 2292.5 244.125 2297.31 229.687 2311.75 244.125 2326.19ZM257.187 2333.41 251 2330.66 267.156 2291.81 273.344 2294.56 257.187 2333.41ZM284.687 2331.34 279.875 2326.53 294.312 2312.09 279.875 2297.66 284.687 2292.84 303.937 2312.09 284.687 2331.34Z" fill="#E7E6E6" fill-rule="nonzero" fill-opacity="1"/></g></g></g></g></svg>