<svg width="97" height="96" xmlns="http://www.w3.org/2000/svg" xmlns:xlink="http://www.w3.org/1999/xlink" xml:space="preserve" overflow="hidden"><defs><clipPath id="clip0"><rect x="712" y="312" width="97" height="96"/></clipPath><clipPath id="clip1"><rect x="713" y="312" width="96" height="96"/></clipPath><clipPath id="clip2"><rect x="713" y="312" width="96" height="96"/></clipPath><clipPath id="clip3"><rect x="713" y="312" width="96" height="96"/></clipPath></defs><g clip-path="url(#clip0)" transform="translate(-712 -312)"><g clip-path="url(#clip1)"><g clip-path="url(#clip2)"><g clip-path="url(#clip3)"><path d="M789 372 733 372 733 338 789 338ZM795 336C795 333.791 793.209 332 791 332L731 332C728.791 332 727 333.791 727 336L727 378 795 378Z" fill="#E7E6E6" fill-rule="nonzero" fill-opacity="1"/><path d="M767 382 767 383C767.034 383.518 766.642 383.966 766.124 384 766.083 384.003 766.041 384.003 766 384L756 384C755.482 384.034 755.034 383.642 755 383.124 754.997 383.083 754.997 383.041 755 383L755 382 715 382 715 384C715 386.209 716.791 388 719 388L803 388C805.209 388 807 386.209 807 384L807 382Z" fill="#E7E6E6" fill-rule="nonzero" fill-opacity="1"/><path d="M761 341C753.268 341 747 347.268 747 355 747 362.732 753.268 369 761 369 768.732 369 775 362.732 775 355 775 347.268 768.732 341 761 341ZM762 356 766.59 356C766.067 359.447 764.459 362.638 762 365.11ZM762 354 762 344.88C764.462 347.354 766.07 350.549 766.59 354ZM760 354 755.56 354C756.057 350.608 757.611 347.459 760 345ZM760 356 760 365C757.615 362.538 756.062 359.391 755.56 356ZM753.55 354 749.27 354C749.714 348.762 753.58 344.455 758.74 343.45 755.889 346.295 754.064 350.005 753.55 354ZM753.55 356C754.064 360.001 755.897 363.717 758.76 366.56 753.593 365.556 749.719 361.245 749.27 356ZM768.6 356 772.73 356C772.292 361.179 768.507 365.456 763.42 366.52 766.269 363.688 768.092 359.985 768.6 356ZM768.6 354C768.088 350.025 766.278 346.33 763.45 343.49 768.522 344.565 772.292 348.834 772.73 354Z" fill="#E7E6E6" fill-rule="nonzero" fill-opacity="1"/></g></g></g></g></svg>