<svg width="335" height="334" xmlns="http://www.w3.org/2000/svg" xmlns:xlink="http://www.w3.org/1999/xlink" xml:space="preserve" overflow="hidden"><defs><clipPath id="clip0"><rect x="1347" y="999" width="335" height="334"/></clipPath><clipPath id="clip1"><rect x="1348" y="1002" width="331" height="331"/></clipPath><clipPath id="clip2"><rect x="1348" y="1002" width="331" height="331"/></clipPath><clipPath id="clip3"><rect x="1348" y="1002" width="331" height="331"/></clipPath></defs><g clip-path="url(#clip0)" transform="translate(-1347 -999)"><g clip-path="url(#clip1)"><g clip-path="url(#clip2)"><g clip-path="url(#clip3)"><path d="M1658.4 1098.25 1369.65 1098.25C1362.05 1098.25 1355.9 1104.41 1355.9 1112L1355.9 1222C1355.9 1229.59 1362.05 1235.75 1369.65 1235.75L1658.4 1235.75C1665.99 1235.75 1672.15 1229.59 1672.15 1222L1672.15 1112C1672.15 1104.41 1665.99 1098.25 1658.4 1098.25ZM1520.9 1122.31 1541.52 1122.31 1541.52 1142.94 1520.9 1142.94ZM1520.9 1156.69 1541.52 1156.69 1541.52 1177.31 1520.9 1177.31ZM1486.52 1122.31 1507.15 1122.31 1507.15 1142.94 1486.52 1142.94ZM1486.52 1156.69 1507.15 1156.69 1507.15 1177.31 1486.52 1177.31ZM1452.15 1122.31 1472.77 1122.31 1472.77 1142.94 1452.15 1142.94ZM1452.15 1156.69 1472.77 1156.69 1472.77 1177.31 1452.15 1177.31ZM1404.02 1211.69 1383.4 1211.69 1383.4 1191.06 1404.02 1191.06ZM1404.02 1177.31 1383.4 1177.31 1383.4 1156.69 1404.02 1156.69ZM1404.02 1142.94 1383.4 1142.94 1383.4 1122.31 1404.02 1122.31ZM1438.4 1211.69 1417.77 1211.69 1417.77 1191.06 1438.4 1191.06ZM1438.4 1177.31 1417.77 1177.31 1417.77 1156.69 1438.4 1156.69ZM1438.4 1142.94 1417.77 1142.94 1417.77 1122.31 1438.4 1122.31ZM1575.9 1211.69 1452.15 1211.69 1452.15 1191.06 1575.9 1191.06ZM1575.9 1177.31 1555.27 1177.31 1555.27 1156.69 1575.9 1156.69ZM1575.9 1142.94 1555.27 1142.94 1555.27 1122.31 1575.9 1122.31ZM1610.27 1211.69 1589.65 1211.69 1589.65 1191.06 1610.27 1191.06ZM1610.27 1177.31 1589.65 1177.31 1589.65 1156.69 1610.27 1156.69ZM1610.27 1142.94 1589.65 1142.94 1589.65 1122.31 1610.27 1122.31ZM1644.65 1211.69 1624.02 1211.69 1624.02 1191.06 1644.65 1191.06ZM1644.65 1177.31 1624.02 1177.31 1624.02 1156.69 1644.65 1156.69ZM1644.65 1142.94 1624.02 1142.94 1624.02 1122.31 1644.65 1122.31Z" fill="#E7E6E6" fill-rule="nonzero" fill-opacity="1"/></g></g></g></g></svg>