<svg width="334" height="334" xmlns="http://www.w3.org/2000/svg" xmlns:xlink="http://www.w3.org/1999/xlink" xml:space="preserve" overflow="hidden"><defs><clipPath id="clip0"><rect x="96" y="403" width="334" height="334"/></clipPath><clipPath id="clip1"><rect x="96" y="403" width="331" height="331"/></clipPath><clipPath id="clip2"><rect x="96" y="403" width="331" height="331"/></clipPath><clipPath id="clip3"><rect x="96" y="403" width="331" height="331"/></clipPath></defs><g clip-path="url(#clip0)" transform="translate(-96 -403)"><g clip-path="url(#clip1)"><g clip-path="url(#clip2)"><g clip-path="url(#clip3)"><path d="M378.875 644.625 145.125 644.625 145.125 493.375 378.875 493.375 378.875 644.625ZM279.187 658.375 244.812 658.375C242.75 658.375 241.375 657 241.375 654.937 241.375 652.875 242.75 651.5 244.812 651.5L279.187 651.5C281.25 651.5 282.625 652.875 282.625 654.937 282.625 657 281.25 658.375 279.187 658.375ZM262 479.625C264.062 479.625 265.437 481 265.437 483.062 265.437 485.125 264.062 486.5 262 486.5 259.937 486.5 258.562 485.125 258.562 483.062 258.562 481 259.937 479.625 262 479.625ZM385.75 472.75 138.25 472.75C130.687 472.75 124.5 478.937 124.5 486.5L124.5 651.5C124.5 659.062 130.687 665.25 138.25 665.25L385.75 665.25C393.312 665.25 399.5 659.062 399.5 651.5L399.5 486.5C399.5 478.937 393.312 472.75 385.75 472.75Z" fill="#E7E6E6" fill-rule="nonzero" fill-opacity="1"/></g></g></g></g></svg>